<svg width="575" height="208" viewBox="0 0 575 208" fill="none" xmlns="http://www.w3.org/2000/svg">
<rect x="143" y="204" width="72" height="72" rx="35.5" transform="rotate(180 143 204)" stroke="#A4A4A4" stroke-width="8"/>
<rect x="123" y="184" width="32" height="32" rx="16" transform="rotate(180 123 184)" stroke="#A4A4A4" stroke-width="8"/>
<rect x="523" y="204" width="72" height="72" rx="35.5" transform="rotate(180 523 204)" stroke="#A4A4A4" stroke-width="8"/>
<rect x="503" y="184" width="32" height="32" rx="16" transform="rotate(180 503 184)" stroke="#A4A4A4" stroke-width="8"/>
<path d="M434.469 166.085C434.458 167.793 434.512 169.323 434.591 170.618L165.076 177.889C165.053 176.349 164.978 174.46 164.799 172.316C164.309 166.462 163.031 158.583 159.832 150.686C156.627 142.774 151.439 134.716 143.072 128.751C134.67 122.761 123.38 119.107 108.395 119.501C93.5063 119.893 82.4025 123.664 74.2016 129.364C66.0063 135.059 60.9812 142.492 57.9353 149.768C54.9015 157.016 53.8089 164.153 53.4618 169.434C53.3571 171.027 53.3195 172.463 53.3186 173.695L4.61183 170.247C4.52284 169.268 4.42849 168.084 4.34395 166.722C4.07814 162.438 3.91068 156.413 4.30609 149.479C5.1017 135.525 8.15557 118.288 16.9048 104.1C18.7814 101.057 22.066 98.0021 26.7275 95.0152C31.3574 92.0484 37.1239 89.2891 43.6873 86.7462C56.8169 81.6594 72.7417 77.5874 88.2387 74.4197C103.71 71.2573 118.625 69.0217 129.683 67.5764C135.208 66.8542 139.762 66.3303 142.931 65.9873C144.516 65.8158 145.754 65.6897 146.593 65.6065C147.012 65.565 147.332 65.5342 147.546 65.5139L147.786 65.4914L147.845 65.4859L147.859 65.4847L147.862 65.4844C147.862 65.4843 147.862 65.4843 147.598 62.573L147.862 65.4843L148.645 65.4132L149.343 65.0509L147.5 61.5008C149.343 65.0509 149.343 65.0508 149.344 65.0505L149.347 65.049L149.359 65.0428L149.407 65.0176L149.602 64.9168C149.775 64.8274 150.032 64.6943 150.37 64.5201C151.046 64.1716 152.043 63.6585 153.326 63.0017C155.892 61.6881 159.6 59.7999 164.165 57.5039C173.295 52.9112 185.847 46.6903 199.532 40.1749C227.047 27.0757 258.694 13.0083 276.508 8.37182C285.122 6.12969 300.711 4.93812 319.664 4.49187C338.479 4.04889 360.198 4.3438 380.823 4.93664C401.439 5.52924 420.923 6.41834 435.254 7.15951C442.419 7.53004 448.294 7.86348 452.377 8.1042C454.418 8.22456 456.011 8.32173 457.093 8.38876C457.634 8.42228 458.047 8.44825 458.324 8.46583L458.5 8.47702L518.249 19.734L514.123 22.7841L508.012 27.3004L515.176 29.7751L515.18 29.7766L515.186 29.7786L515.19 29.78L515.194 29.7815L515.196 29.7827C515.223 29.7925 515.275 29.8121 515.352 29.8422C515.505 29.9024 515.757 30.0048 516.097 30.156C516.779 30.4583 517.817 30.9555 519.145 31.7004C521.799 33.1895 525.614 35.6706 530.047 39.5676C538.896 47.3483 550.292 60.8473 559.811 83.5477C569.312 106.202 571.237 125.748 570.814 139.566C570.603 146.48 569.804 151.963 569.068 155.686C568.852 156.78 568.642 157.721 568.453 158.501H540.171C540.151 157.872 540.112 157.191 540.046 156.465C539.694 152.607 538.566 147.412 535.45 142.101C529.076 131.235 515.118 121.054 486.214 119.506C471.574 118.722 460.735 121.646 452.828 126.865C444.919 132.085 440.335 139.342 437.739 146.515C435.157 153.649 434.502 160.796 434.469 166.085Z" stroke="#A4A4A4" stroke-width="8"/>
<path d="M294.588 15.5699C318.253 13.0789 359.179 13.949 394.253 15.4495C411.777 16.1992 427.817 17.105 439.477 17.8235C445.306 18.1828 450.041 18.4951 453.317 18.7176C454.955 18.8289 456.229 18.9177 457.093 18.9787C457.525 19.0092 457.855 19.0327 458.076 19.0486L458.27 19.0625C458.352 19.0934 458.474 19.1387 458.63 19.1978C458.951 19.3189 459.42 19.4978 460.01 19.7277C461.189 20.1878 462.85 20.8521 464.773 21.6679C468.625 23.3023 473.504 25.5339 477.671 27.9415C479.755 29.1458 481.638 30.3809 483.118 31.5934C484.62 32.823 485.614 33.9554 486.045 34.9324C486.254 35.4049 486.314 35.8036 486.27 36.1451C486.228 36.4789 486.077 36.8353 485.733 37.2171C485.01 38.021 483.487 38.873 480.726 39.6092C458.234 45.6065 411.311 57.5859 363.411 61.0781C349.713 62.0767 326.605 64.2972 300.827 66.7743C281.425 68.6387 260.51 70.6484 240.957 72.3919C218.176 74.4231 197.242 76.0933 182.665 76.7563C175.365 77.0883 169.704 77.1653 166.208 76.9169C165.337 76.855 164.618 76.7741 164.051 76.6757C163.838 76.6388 163.655 76.6007 163.498 76.5629C169.319 72.2227 189.992 58.4786 215.08 45.0823C240.822 31.3367 271.048 18.0479 294.588 15.5699ZM162.818 76.3182C162.819 76.3181 162.827 76.3226 162.838 76.3323C162.823 76.3232 162.818 76.3184 162.818 76.3182Z" stroke="#A4A4A4" stroke-width="2"/>
</svg>
