<svg width="1322" height="330" viewBox="0 0 1322 330" fill="none" xmlns="http://www.w3.org/2000/svg">
<path d="M46.864 47.4977L47.0727 47.5048L47.281 47.4901L152.5 40.0804C152.729 40.3019 153.027 40.6458 153.377 41.1744C154.11 42.2805 154.884 43.9085 155.652 46.1268C157.188 50.5599 158.502 56.7534 159.593 64.3825C161.77 79.6005 162.968 99.8255 163.559 121.494C164.628 160.609 163.714 203.976 163.163 230.135C163.104 232.906 163.05 235.483 163.002 237.842L160.642 277.962L158.96 272.747C158.812 270.29 158.811 267.903 158.809 265.45C158.808 264.673 158.807 263.89 158.802 263.096C158.78 259.734 158.673 256.216 157.998 252.806C157.313 249.336 156.031 245.911 153.631 242.72C151.238 239.538 147.883 236.789 143.332 234.444C134.268 229.775 122.525 228.117 111.717 228.376C100.944 228.634 90.3644 230.816 83.5949 234.483C70.8737 241.373 65.7585 254.159 63.5365 269.145L4 263.369V211V159.767L15.8931 71.0639L20.9095 59.2071C25.4197 54.3816 28.8762 51.4907 32.5177 49.7618C36.209 48.0093 40.4609 47.2799 46.864 47.4977Z" stroke="#A4A4A4" stroke-width="8"/>
<path d="M43.5 150C33.4812 150.208 26.0412 150.124 13 150L22 97.5H105L115.5 146H58L43.5 150Z" stroke="#A4A4A4" stroke-width="3"/>
<rect x="147" y="315" width="72" height="72" rx="35.5" transform="rotate(180 147 315)" stroke="#A4A4A4" stroke-width="8"/>
<rect x="127" y="295" width="32" height="32" rx="16" transform="rotate(180 127 295)" stroke="#A4A4A4" stroke-width="8"/>
<rect x="682" y="326" width="72" height="72" rx="35.5" transform="rotate(180 682 326)" stroke="#A4A4A4" stroke-width="8"/>
<rect x="662" y="306" width="32" height="32" rx="16" transform="rotate(180 662 306)" stroke="#A4A4A4" stroke-width="8"/>
<path d="M555.5 326H554.5C534.894 326 519 310.106 519 290.5V289.5C519 269.894 534.894 254 554.5 254H555.5C575.106 254 591 269.894 591 289.5V290.5C591 310.106 575.106 326 555.5 326Z" stroke="#A4A4A4" stroke-width="8"/>
<rect x="571" y="306" width="32" height="32" rx="16" transform="rotate(180 571 306)" stroke="#A4A4A4" stroke-width="8"/>
<path d="M506 288H164.5V230H702.5C702.5 230 703.5 288 702.5 288H696C695 288 693 257 693 257C692.5 247 691 240 671.5 240H532.5C516.446 241.631 510.093 246.14 506 264V288Z" stroke="#A4A4A4" stroke-width="8"/>
<path d="M234 260H246" stroke="#FF5500" stroke-width="5" stroke-linecap="round"/>
<path d="M438 260H450" stroke="#FF5500" stroke-width="5" stroke-linecap="round"/>
<path d="M168 4H706V229H168V4Z" fill="#E8F0FE" stroke="#0972D3" stroke-width="8"/>
<rect x="1294" y="326" width="72" height="72" rx="35.5" transform="rotate(180 1294 326)" stroke="#A4A4A4" stroke-width="8"/>
<rect x="1274" y="306" width="32" height="32" rx="16" transform="rotate(180 1274 306)" stroke="#A4A4A4" stroke-width="8"/>
<path d="M844.5 326H843.5C823.894 326 808 310.106 808 290.5V289.5C808 269.894 823.894 254 843.5 254H844.5C864.106 254 880 269.894 880 289.5V290.5C880 310.106 864.106 326 844.5 326Z" stroke="#A4A4A4" stroke-width="8"/>
<rect x="860" y="306" width="32" height="32" rx="16" transform="rotate(180 860 306)" stroke="#A4A4A4" stroke-width="8"/>
<path d="M1314.5 288H1308C1307 288 1305 257 1305 257C1304.5 247 1303 240 1283.5 240C1283.5 240 1257 233.5 1233 240C1209 246.5 1205.59 270.14 1201.5 288H1118C936 288 956.5 287.5 892.5 287.5C892.5 287.5 888.508 240.196 843 240C797.492 239.804 788.304 292.741 797 293H776.5V230H1314.5C1314.5 230 1315.5 288 1314.5 288Z" stroke="#A4A4A4" stroke-width="8"/>
<path d="M946 260H958" stroke="#FF5500" stroke-width="5" stroke-linecap="round"/>
<path d="M1158 260H1170" stroke="#FF5500" stroke-width="5" stroke-linecap="round"/>
<path d="M780 4H1318V229H780V4Z" fill="#E8F0FE" stroke="#0972D3" stroke-width="8"/>
<rect x="703" y="233" width="74" height="7" fill="#A4A4A4"/>
</svg>
