<svg width="748" height="327" viewBox="0 0 748 327" fill="none" xmlns="http://www.w3.org/2000/svg">
<path d="M56.9035 278.745L9.69677 264.185C9.35346 263.461 8.90847 262.472 8.41843 261.258C7.27911 258.436 5.9123 254.436 5.00336 249.745C3.17842 240.326 3.25962 228.498 10.249 217.676C18.2297 205.318 22.2695 194.814 24.3112 187.305C25.3314 183.554 25.8509 180.557 26.1153 178.459C26.1287 178.352 26.1415 178.248 26.1536 178.147C27.3529 177.822 28.9109 177.391 30.7699 176.859C35.3776 175.542 41.8418 173.602 49.2837 171.111C64.1249 166.143 83.0286 158.923 98.8553 149.989C108.176 144.727 111.936 134.314 115.365 123.521C115.785 122.2 116.203 120.858 116.628 119.497C119.807 109.296 123.319 98.0288 130.244 86.6463C145.679 61.275 178.79 34.3959 266.361 23.9775C354.41 13.5024 474.623 8.50553 572.923 6.13111C622.052 4.9444 665.67 4.4135 697.005 4.17929C712.672 4.06218 725.267 4.01926 733.945 4.0056C737.96 3.99928 741.135 3.99923 743.389 4.001V263.834L668.419 270.273C667.833 268.998 667.026 267.342 665.987 265.418C663.56 260.922 659.843 254.919 654.674 248.9C644.339 236.865 627.949 224.506 604.389 224.506C580.504 224.506 564.081 239.604 553.88 253.936C548.748 261.147 545.062 268.331 542.66 273.7C541.511 276.267 540.65 278.433 540.06 280.005H177.274C177.213 279.896 177.149 279.783 177.083 279.667C176.199 278.104 174.895 275.896 173.197 273.28C169.807 268.059 164.81 261.155 158.398 254.484C145.694 241.267 126.655 228.201 103.157 232.573C80.2791 236.829 68.4333 249.609 62.4444 261.45C59.4844 267.303 57.9777 272.869 57.2076 276.97C57.0902 277.596 56.9896 278.189 56.9035 278.745Z" stroke="#A4A4A4" stroke-width="8"/>
<rect x="147.389" y="323.008" width="72" height="72" rx="35.5" transform="rotate(180 147.389 323.008)" stroke="#A4A4A4" stroke-width="8"/>
<rect x="127.389" y="303.008" width="32" height="32" rx="16" transform="rotate(180 127.389 303.008)" stroke="#A4A4A4" stroke-width="8"/>
<rect x="640.389" y="323.008" width="72" height="72" rx="35.5" transform="rotate(180 640.389 323.008)" stroke="#A4A4A4" stroke-width="8"/>
<rect x="620.389" y="303.008" width="32" height="32" rx="16" transform="rotate(180 620.389 303.008)" stroke="#A4A4A4" stroke-width="8"/>
<path d="M206.215 66.5486C215.839 62.1071 231.479 58.25 245.805 56.3191C252.959 55.3548 259.745 54.8767 265.251 55.0386C268.005 55.1196 270.414 55.3601 272.378 55.7708C274.362 56.1855 275.8 56.7557 276.688 57.435C277.305 57.9064 277.86 58.9571 278.214 60.7697C278.56 62.5382 278.679 64.8363 278.603 67.5421C278.452 72.947 277.534 79.802 276.272 86.9239C273.749 101.157 269.884 116.304 268.183 122.721C267.691 124.578 266.601 126.193 265.072 127.382L255.635 134.721C254.771 135.394 253.791 135.903 252.744 136.223L206.316 150.436C205.827 150.585 205.356 150.689 204.858 150.75C201.307 151.184 186.671 152.899 171.305 153.636C163.62 154.004 155.774 154.126 149.05 153.724C142.272 153.32 136.811 152.389 133.769 150.759C133.136 150.42 132.748 149.929 132.548 149.254C132.338 148.544 132.325 147.587 132.573 146.358C133.069 143.893 134.542 140.646 136.834 136.818C141.402 129.189 149.025 119.573 157.728 109.871C166.424 100.178 176.164 90.4379 184.941 82.5647C193.751 74.6608 201.494 68.7277 206.215 66.5486Z" stroke="#A4A4A4" stroke-width="2"/>
</svg>
