<svg width="1239" height="302" viewBox="0 0 1239 302" fill="none" xmlns="http://www.w3.org/2000/svg">
<rect x="1143" y="298" width="72" height="72" rx="35.5" transform="rotate(180 1143 298)" stroke="#A4A4A4" stroke-width="8"/>
<rect x="1123" y="278" width="32" height="32" rx="16" transform="rotate(180 1123 278)" stroke="#A4A4A4" stroke-width="8"/>
<rect x="961" y="298" width="72" height="72" rx="35.5" transform="rotate(180 961 298)" stroke="#A4A4A4" stroke-width="8"/>
<rect x="941" y="278" width="32" height="32" rx="16" transform="rotate(180 941 278)" stroke="#A4A4A4" stroke-width="8"/>
<rect x="1052" y="298" width="72" height="72" rx="35.5" transform="rotate(180 1052 298)" stroke="#A4A4A4" stroke-width="8"/>
<rect x="1032" y="278" width="32" height="32" rx="16" transform="rotate(180 1032 278)" stroke="#A4A4A4" stroke-width="8"/>
<path d="M393.5 249L322 196.5L1234 195.5L1229 249H1168C1165.09 228.145 1171.61 211.899 1128.5 213.5H895.5C875.234 212.455 871.624 227.129 863 249H393.5Z" stroke="#A4A4A4" stroke-width="8"/>
<rect x="4" y="4" width="1231" height="189" fill="#005DFF" fill-opacity="0.1" stroke="#0972D3" stroke-width="8"/>
<path d="M512 222H524" stroke="#FF5500" stroke-width="5" stroke-linecap="round"/>
<path d="M811 222H823" stroke="#FF5500" stroke-width="5" stroke-linecap="round"/>
<path d="M425 222H437" stroke="#FF5500" stroke-width="5" stroke-linecap="round"/>
<path d="M716 222H728" stroke="#FF5500" stroke-width="5" stroke-linecap="round"/>
<path d="M233.5 276C233.5 279.038 235.962 281.5 239 281.5C242.038 281.5 244.5 279.038 244.5 276L233.5 276ZM244.5 276L244.5 196L233.5 196L233.5 276L244.5 276Z" fill="#A4A4A4"/>
<path d="M233.5 276C233.5 279.038 235.962 281.5 239 281.5C242.038 281.5 244.5 279.038 244.5 276L233.5 276ZM244.5 276L244.5 196L233.5 196L233.5 276L244.5 276Z" fill="#A4A4A4"/>
</svg>
