<svg width="444" height="286" viewBox="0 0 444 286" fill="none" xmlns="http://www.w3.org/2000/svg">
<path d="M337.524 251H164V197.072H349.194C363.911 190.111 371.398 188.309 383.695 188C417.655 189.783 437.243 211.474 439 251H430.882C430.882 215.216 411.601 198.584 385.218 198.584C351.731 200.6 341.497 218.606 337.524 251Z" stroke="#A4A4A4" stroke-width="8"/>
<path d="M46.864 11.4977L47.0727 11.5048L47.281 11.4901L152.5 4.08036C152.729 4.30185 153.027 4.64577 153.377 5.17442C154.11 6.28053 154.884 7.90849 155.652 10.1268C157.188 14.5599 158.502 20.7534 159.593 28.3825C161.77 43.6005 162.968 63.8255 163.559 85.4938C164.628 124.609 163.714 167.976 163.163 194.135C163.104 196.906 163.05 199.483 163.002 201.842L160.642 241.962L158.96 236.747C158.812 234.29 158.811 231.903 158.809 229.45C158.808 228.673 158.807 227.89 158.802 227.096C158.78 223.734 158.673 220.216 157.998 216.806C157.313 213.336 156.031 209.911 153.631 206.72C151.238 203.538 147.883 200.789 143.332 198.444C134.268 193.775 122.525 192.117 111.717 192.376C100.944 192.634 90.3644 194.816 83.5949 198.483C70.8737 205.373 65.7585 218.159 63.5365 233.145L4 227.369V175V123.767L15.8931 35.0639L20.9095 23.2071C25.4197 18.3816 28.8762 15.4907 32.5177 13.7618C36.209 12.0093 40.4609 11.2799 46.864 11.4977Z" stroke="#A4A4A4" stroke-width="8"/>
<path d="M43.5 114C33.4812 114.208 26.0412 114.124 13 114L22 61.5H105L115.5 110H58L43.5 114Z" stroke="#A4A4A4" stroke-width="3"/>
<rect x="147" y="279" width="72" height="72" rx="35.5" transform="rotate(180 147 279)" stroke="#A4A4A4" stroke-width="8"/>
<rect x="422" y="282" width="72" height="72" rx="35.5" transform="rotate(180 422 282)" stroke="#A4A4A4" stroke-width="8"/>
<rect x="402" y="262" width="32" height="32" rx="16" transform="rotate(180 402 262)" stroke="#A4A4A4" stroke-width="8"/>
<rect x="127" y="259" width="32" height="32" rx="16" transform="rotate(180 127 259)" stroke="#A4A4A4" stroke-width="8"/>
<path d="M313.5 185.5L312 196H337.5V185.5C338.676 181.616 348.124 183.934 358 184.5L364 175.5H285.5L292.5 184.5C306.55 184.052 314.814 183.746 313.5 185.5Z" stroke="#A4A4A4" stroke-width="8"/>
</svg>
